<?xml version="1.0" encoding="UTF-8"?><svg id="Layer_1" xmlns="http://www.w3.org/2000/svg" viewBox="0 0 163.55 119.34"><path d="M163.55,54.91V26.98h-28.91V15.04L134.74,0h-28.11V91.36c0,15.45,12.53,27.97,27.98,27.95l28.94-.04v-27.5h-21.68c-4.04,0-7.31-3.27-7.31-7.31v-10.84h.08c0-6.23,0-12.43,0-18.72h28.91Z"/><path d="M75.07,26.98h21.95V0h-27.93V119.34h27.93V49.46c0-2.96-1.34-5.77-3.64-7.64l-18.31-14.84Z"/><path d="M27.93,84.47V0H0V91.36c0,15.45,12.53,27.97,27.98,27.95l31.45-.04v-27.5h-24.2c-4.04,0-7.31-3.27-7.31-7.31Z"/></svg>