<?xml version="1.0" encoding="UTF-8"?><svg id="Layer_1" xmlns="http://www.w3.org/2000/svg" viewBox="0 0 160.98 188.98"><path d="M22.96,55.34s-.32,6.09-12.1,25.95c-13.65,23.01-14.93,49.96-.99,72.45,29.39,47.42,109.16,46.52,138.72,.03,11.44-17.99,14.72-38.62,10.81-59.58,0,0-9.46-43.77-41.77-71.37,.51,.43,1.76,6.28,2,8.79,.73,7.67,.01,15.72-2.56,23.03-1.89,5.37-4.5,10.02-8.92,13.6,0-1.25-.31-3.49-.32-4.25-.21-15.29-6.13-29.45-15.76-41.34C83.65,12.29,72.1,5.21,59.95,0c.31,1.05,.88,5.4,.95,6.25,.63,7.22,.74,17.32-.21,24.54-.93,7.07-2.57,11.14-4.78,17.9-3.34,10.25-7.9,17.84-13.67,26.96-1.06,1.68-4.24,6.27-5.94,8.59,0,0-2.92-18.47-13.35-28.9Z"/></svg>